<svg xmlns="http://www.w3.org/2000/svg" viewBox="0 0 420 128" role="img" aria-labelledby="title desc">
  <title id="title">생각결 wordmark</title>
  <desc id="desc">생각결 wordmark with the time-context symbol.</desc>
  <rect width="420" height="128" rx="24" fill="#F8F9F6"/>
  <g transform="translate(22 18)">
    <path d="M9 25 C24 10 42 12 56 27 C64 34 72 36 81 32" fill="none" stroke="#155E52" stroke-width="6" stroke-linecap="round"/>
    <path d="M4 68 C21 50 37 52 52 63 C64 72 75 76 86 65" fill="none" stroke="#355C9A" stroke-width="6" stroke-linecap="round"/>
    <path d="M28 26 C35 41 44 51 59 62" fill="none" stroke="#B45F3A" stroke-width="4" stroke-linecap="round"/>
    <circle cx="27" cy="18" r="5.5" fill="#155E52"/>
    <circle cx="56" cy="27" r="5.5" fill="#155E52"/>
    <circle cx="30" cy="57" r="5.5" fill="#355C9A"/>
    <circle cx="62" cy="71" r="5.5" fill="#355C9A"/>
    <circle cx="47" cy="49" r="6.5" fill="#F4C95D" stroke="#1E2320" stroke-width="2.5"/>
  </g>
  <text x="128" y="72" fill="#1E2320" font-size="44" font-weight="700" font-family="Gowun Batang, Apple SD Gothic Neo, serif">생각결</text>
  <text x="130" y="98" fill="#68736D" font-size="14" font-family="IBM Plex Sans KR, Apple SD Gothic Neo, sans-serif">time-context capture for Mac</text>
</svg>
